# xmcd CD database file
#
# Track frame offsets:
#	150
#	41282
#	55329
#	68358
#	83458
#	112118
#	155494
#	187633
#	209510
#	264428
#	298905
#
# Disc length: 4183 seconds
#
# Revision: 7
# Processed by: cddbd v1.5.2PL0 Copyright (c) Steve Scherf et al.
# Submitted via: CDex 1.70beta2
#
DISCID=9010550b
DTITLE=Various Artist - Simply Smooth Jazz 2
DYEAR=2004
DGENRE=Jazz
TTITLE0=Jon Hendricks - Freddie Freeloader
TTITLE1=George Shearing - Sophisticated Lady
TTITLE2=Billy Eckstine - In My Solitude
TTITLE3=Stan Getz - Always
TTITLE4=Adderlye Brothers - Willow Weep For Me
TTITLE5=Frank Wess and Kenny Burrell - Miss Blues
TTITLE6=Grant Green - Samba De Orpheus
TTITLE7=Richard Groove Holmes - Groove's Groove
TTITLE8=Sonny Stitt - Medley
TTITLE9=Donald Byrd - Someone To Watch Over Me
TTITLE10=Jimmy Scott - When Did You Leave Heaven
EXTD=YEAR: 2004
EXTT0=
EXTT1=
EXTT2=
EXTT3=
EXTT4=
EXTT5=
EXTT6=
EXTT7=
EXTT8=
EXTT9=
EXTT10=
PLAYORDER=
